<svg width="1600" height="840" viewBox="0 0 1600 840" fill="none" xmlns="http://www.w3.org/2000/svg">
<rect width="1600" height="840" rx="36" fill="#F6F3ED"/><circle cx="1450" cy="90" r="220" fill="#DCEADD"/><circle cx="90" cy="770" r="250" fill="#F7E5CD"/>
<rect x="170" y="105" width="1260" height="630" rx="24" fill="#FFFEFB" stroke="#DCE1DA" stroke-width="3"/>
<path d="M170 129C170 115.745 180.745 105 194 105H405V735H194C180.745 735 170 724.255 170 711V129Z" fill="#163C38"/>
<rect x="207" y="147" width="42" height="42" rx="12" fill="#C9E7D3"/><text x="219" y="178" fill="#163C38" font-family="Arial, sans-serif" font-size="30" font-weight="700">h</text><text x="262" y="177" fill="white" font-family="Georgia, serif" font-size="35">haven</text>
<rect x="197" y="247" width="180" height="46" rx="10" fill="#2B5A53"/><text x="225" y="277" fill="white" font-family="Arial, sans-serif" font-size="16">⌂  Overview</text><text x="225" y="338" fill="#B3CFC0" font-family="Arial, sans-serif" font-size="16">✓  Tasks</text><text x="225" y="398" fill="#B3CFC0" font-family="Arial, sans-serif" font-size="16">◒  Money</text><text x="225" y="458" fill="#B3CFC0" font-family="Arial, sans-serif" font-size="16">▤  Documents</text><text x="225" y="518" fill="#B3CFC0" font-family="Arial, sans-serif" font-size="16">⌂  Home &amp; things</text>
<text x="460" y="163" fill="#6C817B" font-family="Arial, sans-serif" font-size="15">SUNDAY, 12 JULY   •   GOOD MORNING, SURYA</text><line x1="405" y1="207" x2="1430" y2="207" stroke="#E4E5E0" stroke-width="2"/>
<text x="460" y="276" fill="#69817A" font-family="Arial, sans-serif" font-size="14" letter-spacing="2">YOUR DAY, IN FOCUS</text><text x="460" y="345" fill="#17332F" font-family="Georgia, serif" font-size="58" font-weight="700">Everything is</text><text x="460" y="409" fill="#357B69" font-family="Georgia, serif" font-size="58" font-style="italic">handled.</text>
<rect x="1167" y="252" width="185" height="150" rx="16" fill="#DDEBE0"/><text x="1190" y="285" fill="#55736A" font-family="Arial, sans-serif" font-size="12" letter-spacing="1">HAVEN SCORE</text><text x="1190" y="352" fill="#17332F" font-family="Georgia, serif" font-size="58" font-weight="700">82</text><text x="1190" y="379" fill="#53736A" font-family="Arial, sans-serif" font-size="13">Looking good  ↗ 4</text>
<rect x="460" y="453" width="892" height="87" rx="14" fill="#FFF0D8" stroke="#F3DEB9" stroke-width="2"/><rect x="482" y="475" width="43" height="43" rx="11" fill="#F2CB75"/><text x="494" y="505" fill="#4D432B" font-family="Arial, sans-serif" font-size="24">✦</text><text x="545" y="483" fill="#907442" font-family="Arial, sans-serif" font-size="11" letter-spacing="1">HAVEN'S FOCUS FOR TODAY</text><text x="545" y="512" fill="#283B35" font-family="Arial, sans-serif" font-size="16">Set aside 10 minutes to renew your car insurance — it expires next week.</text>
<rect x="460" y="568" width="534" height="137" rx="15" fill="#FFFEFB" stroke="#E1E3DD" stroke-width="2"/><text x="485" y="598" fill="#6C817B" font-family="Arial, sans-serif" font-size="11" letter-spacing="1">COMING UP</text><text x="485" y="631" fill="#17332F" font-family="Georgia, serif" font-size="24">Your next 7 days</text><circle cx="500" cy="663" r="6" fill="#73A68F"/><text x="522" y="669" fill="#253C36" font-family="Arial, sans-serif" font-size="14">Pay electricity bill</text><circle cx="500" cy="691" r="6" fill="#E98756"/><text x="522" y="697" fill="#253C36" font-family="Arial, sans-serif" font-size="14">Dental check-up · 16 Jul</text>
<rect x="1014" y="568" width="338" height="137" rx="15" fill="#FFFEFB" stroke="#E1E3DD" stroke-width="2"/><text x="1039" y="598" fill="#6C817B" font-family="Arial, sans-serif" font-size="11" letter-spacing="1">MONEY PULSE</text><text x="1039" y="635" fill="#17332F" font-family="Georgia, serif" font-size="29">₹18,400</text><text x="1039" y="657" fill="#6C817B" font-family="Arial, sans-serif" font-size="12">spent so far</text><rect x="1039" y="676" width="270" height="9" rx="5" fill="#E4ECE5"/><rect x="1039" y="676" width="170" height="9" rx="5" fill="#6EAD8E"/>
</svg>
